<svg width="38" height="45" viewBox="0 0 38 45" fill="none" xmlns="http://www.w3.org/2000/svg">
<path d="M7.33334 11.6667C7.33334 5.22335 12.5567 0 19 0C25.4433 0 30.6667 5.22335 30.6667 11.6667C30.6667 18.11 25.4433 23.3333 19 23.3333C12.5567 23.3333 7.33334 18.11 7.33334 11.6667ZM19 18.6667C22.866 18.6667 26 15.5327 26 11.6667C26 7.80067 22.866 4.66667 19 4.66667C15.134 4.66667 12 7.80067 12 11.6667C12 15.5327 15.134 18.6667 19 18.6667Z" fill="#0F1828"/>
<path d="M5.80068 31.134C2.3 34.6347 0.333344 39.3826 0.333344 44.3333H5.00001C5.00001 40.6203 6.47501 37.0593 9.10051 34.4338C11.726 31.8083 15.287 30.3333 19 30.3333C22.713 30.3333 26.274 31.8083 28.8995 34.4338C31.525 37.0593 33 40.6203 33 44.3333H37.6667C37.6667 39.3826 35.7 34.6347 32.1993 31.134C28.6987 27.6333 23.9507 25.6667 19 25.6667C14.0493 25.6667 9.30136 27.6333 5.80068 31.134Z" fill="#0F1828"/>
</svg>
